{"asset":{"version":"2.0","generator":"Blockbench 4.12.5 glTF exporter"},"scenes":[{"nodes":[1],"name":"blockbench_export"}],"scene":0,"nodes":[{"translation":[0,-5,0],"name":"chimney","mesh":0},{"children":[0]}],"bufferViews":[{"buffer":0,"byteOffset":0,"byteLength":4608,"target":34962,"byteStride":12},{"buffer":0,"byteOffset":4608,"byteLength":4608,"target":34962,"byteStride":12},{"buffer":0,"byteOffset":9216,"byteLength":3072,"target":34962,"byteStride":8},{"buffer":0,"byteOffset":12288,"byteLength":1152,"target":34963}],"buffers":[{"byteLength":13440,"uri":"data:application/octet-stream;base64,"}],"accessors":[{"bufferView":0,"componentType":5126,"count":384,"max":[4.375,10,4.375],"min":[-4.375,3.0616169991140216e-16,-4.375],"type":"VEC3"},{"bufferView":1,"componentType":5126,"count":384,"max":[1,1,1],"min":[-1,-1,-1],"type":"VEC3"},{"bufferView":2,"componentType":5126,"count":384,"max":[0.731459379196167,0.8292468786239624],"min":[0,0],"type":"VEC2"},{"bufferView":3,"componentType":5123,"count":576,"max":[383],"min":[0],"type":"SCALAR"}],"materials":[{"pbrMetallicRoughness":{"metallicFactor":0,"roughnessFactor":1,"baseColorTexture":{"index":0}},"alphaMode":"MASK","alphaCutoff":0.05,"doubleSided":true}],"textures":[{"sampler":0,"source":0,"name":"steam_chimney"}],"samplers":[{"magFilter":9728,"minFilter":9728,"wrapS":33071,"wrapT":33071}],"images":[{"mimeType":"image/png","name":"steam_chimney.png","uri":"steam_chimney.png"}],"meshes":[{"primitives":[{"mode":4,"attributes":{"POSITION":0,"NORMAL":1,"TEXCOORD_0":2},"indices":3,"material":0}]}]}