{"asset":{"version":"2.0","generator":"Blockbench 4.12.5 glTF exporter"},"scenes":[{"nodes":[7],"name":"blockbench_export"}],"scene":0,"nodes":[{"translation":[0.625,-5,-5],"name":"inlet","mesh":0},{"rotation":[0.7071067811865475,0,0,0.7071067811865476],"translation":[0,0,-4.375],"name":"case","mesh":1},{"rotation":[0.7071067811865475,0,0,0.7071067811865476],"translation":[0,0,-3.75],"name":"diaphragm","mesh":2},{"rotation":[2.8578186011614216e-17,0.7071067811865468,-0.7071067811865482,5.801741961193509e-17],"translation":[0,0,-4.359375],"name":"back_plane","mesh":3},{"translation":[0.3125,-0.9375,0],"name":"needle","mesh":4},{"translation":[0,0,-3.75],"name":"needle","children":[4]},{"name":"group","children":[0,1,2,3,5]},{"children":[6]}],"bufferViews":[{"buffer":0,"byteOffset":0,"byteLength":1152,"target":34962,"byteStride":12},{"buffer":0,"byteOffset":1152,"byteLength":1152,"target":34962,"byteStride":12},{"buffer":0,"byteOffset":2304,"byteLength":768,"target":34962,"byteStride":8},{"buffer":0,"byteOffset":3072,"byteLength":288,"target":34963},{"buffer":0,"byteOffset":3360,"byteLength":2304,"target":34962,"byteStride":12},{"buffer":0,"byteOffset":5664,"byteLength":2304,"target":34962,"byteStride":12},{"buffer":0,"byteOffset":7968,"byteLength":1536,"target":34962,"byteStride":8},{"buffer":0,"byteOffset":9504,"byteLength":576,"target":34963},{"buffer":0,"byteOffset":10080,"byteLength":432,"target":34962,"byteStride":12},{"buffer":0,"byteOffset":10512,"byteLength":432,"target":34962,"byteStride":12},{"buffer":0,"byteOffset":10944,"byteLength":288,"target":34962,"byteStride":8},{"buffer":0,"byteOffset":11232,"byteLength":72,"target":34963},{"buffer":0,"byteOffset":11304,"byteLength":432,"target":34962,"byteStride":12},{"buffer":0,"byteOffset":11736,"byteLength":432,"target":34962,"byteStride":12},{"buffer":0,"byteOffset":12168,"byteLength":288,"target":34962,"byteStride":8},{"buffer":0,"byteOffset":12456,"byteLength":72,"target":34963},{"buffer":0,"byteOffset":12528,"byteLength":288,"target":34962,"byteStride":12},{"buffer":0,"byteOffset":12816,"byteLength":288,"target":34962,"byteStride":12},{"buffer":0,"byteOffset":13104,"byteLength":192,"target":34962,"byteStride":8},{"buffer":0,"byteOffset":13296,"byteLength":72,"target":34963},{"buffer":0,"byteOffset":13368,"byteLength":16},{"buffer":0,"byteOffset":13384,"byteLength":64},{"buffer":0,"byteOffset":13448,"byteLength":8},{"buffer":0,"byteOffset":13456,"byteLength":24}],"buffers":[{"byteLength":13480,"uri":"data:application/octet-stream;base64,"}],"accessors":[{"bufferView":0,"componentType":5126,"count":96,"max":[0.625,6.25,0.625],"min":[-1.875,3.75,0],"type":"VEC3"},{"bufferView":1,"componentType":5126,"count":96,"max":[1,1,1],"min":[-1,-1,-1],"type":"VEC3"},{"bufferView":2,"componentType":5126,"count":96,"max":[0.8125,0.75],"min":[0,0],"type":"VEC2"},{"bufferView":3,"componentType":5123,"count":144,"max":[95],"min":[0],"type":"SCALAR"},{"bufferView":4,"componentType":5126,"count":192,"max":[3.75,1.25,3.75],"min":[-3.75,0,-3.75],"type":"VEC3"},{"bufferView":5,"componentType":5126,"count":192,"max":[1,1,1],"min":[-1,-1,-1],"type":"VEC3"},{"bufferView":6,"componentType":5126,"count":192,"max":[0.9632218480110168,0.75],"min":[0,0],"type":"VEC2"},{"bufferView":7,"componentType":5123,"count":288,"max":[191],"min":[0],"type":"SCALAR"},{"bufferView":8,"componentType":5126,"count":36,"max":[3.1875,0,3.1875],"min":[-3.1875,0,-3.1875],"type":"VEC3"},{"bufferView":9,"componentType":5126,"count":36,"max":[0,1,0],"min":[0,1,0],"type":"VEC3"},{"bufferView":10,"componentType":5126,"count":36,"max":[0.6625000238418579,0.637499988079071],"min":[0.02500000037252903,0],"type":"VEC2"},{"bufferView":11,"componentType":5123,"count":36,"max":[35],"min":[0],"type":"SCALAR"},{"bufferView":12,"componentType":5126,"count":36,"max":[3.1875,0,3.1875],"min":[-3.1875,0,-3.1875],"type":"VEC3"},{"bufferView":13,"componentType":5126,"count":36,"max":[0,1,0],"min":[0,1,0],"type":"VEC3"},{"bufferView":14,"componentType":5126,"count":36,"max":[0.6625000238418579,0.637499988079071],"min":[0.02500000037252903,0],"type":"VEC2"},{"bufferView":15,"componentType":5123,"count":36,"max":[35],"min":[0],"type":"SCALAR"},{"bufferView":16,"componentType":5126,"count":24,"max":[0,1.25,0.625],"min":[-0.625,-2.1875,0],"type":"VEC3"},{"bufferView":17,"componentType":5126,"count":24,"max":[1,1,1],"min":[-1,-1,-1],"type":"VEC3"},{"bufferView":18,"componentType":5126,"count":24,"max":[0.3125,0.375],"min":[0,0],"type":"VEC2"},{"bufferView":19,"componentType":5123,"count":36,"max":[23],"min":[0],"type":"SCALAR"},{"bufferView":20,"componentType":5126,"count":4,"max":[1],"min":[0],"type":"SCALAR"},{"bufferView":21,"componentType":5126,"count":4,"max":[0,0,-0.08715574443340302,0.9961947202682495],"min":[0,0,-0.9396926164627075,-0.9961947202682495],"type":"VEC4"},{"bufferView":22,"componentType":5126,"count":2,"max":[1],"min":[0],"type":"SCALAR"},{"bufferView":23,"componentType":5126,"count":2,"max":[0,0,-3.75],"min":[0,0,-3.75],"type":"VEC3"}],"materials":[{"pbrMetallicRoughness":{"metallicFactor":0,"roughnessFactor":1,"baseColorTexture":{"index":0}},"alphaMode":"MASK","alphaCutoff":0.05,"doubleSided":true},{"pbrMetallicRoughness":{"metallicFactor":0,"roughnessFactor":1,"baseColorTexture":{"index":1}},"alphaMode":"MASK","alphaCutoff":0.05,"doubleSided":true},{"pbrMetallicRoughness":{"metallicFactor":0,"roughnessFactor":1,"baseColorTexture":{"index":2}},"alphaMode":"MASK","alphaCutoff":0.05,"doubleSided":true},{"pbrMetallicRoughness":{"metallicFactor":0,"roughnessFactor":1,"baseColorTexture":{"index":3}},"alphaMode":"MASK","alphaCutoff":0.05,"doubleSided":true},{"pbrMetallicRoughness":{"metallicFactor":0,"roughnessFactor":1,"baseColorTexture":{"index":4}},"alphaMode":"MASK","alphaCutoff":0.05,"doubleSided":true}],"textures":[{"sampler":0,"source":0,"name":"steam_temperature_gauge_inlet"},{"sampler":1,"source":1,"name":"steam_temperature_gauge_case"},{"sampler":2,"source":2,"name":"texture"},{"sampler":3,"source":3,"name":"steam_temperature_gauge_back_plane"},{"sampler":4,"source":4,"name":"steam_temperature_gauge_needle"}],"samplers":[{"magFilter":9728,"minFilter":9728,"wrapS":33071,"wrapT":33071},{"magFilter":9728,"minFilter":9728,"wrapS":33071,"wrapT":33071},{"magFilter":9728,"minFilter":9728,"wrapS":33071,"wrapT":33071},{"magFilter":9728,"minFilter":9728,"wrapS":33071,"wrapT":33071},{"magFilter":9728,"minFilter":9728,"wrapS":33071,"wrapT":33071}],"images":[{"mimeType":"image/png","name":"steam_temperature_gauge_inlet.png","uri":"steam_temperature_gauge_inlet.png"},{"mimeType":"image/png","name":"steam_temperature_gauge_case.png","uri":"steam_temperature_gauge_case.png"},{"mimeType":"image/png","name":"steam_temperature_gauge_diaphragm.png","uri":"steam_temperature_gauge_diaphragm.png"},{"mimeType":"image/png","name":"steam_temperature_gauge_back_plane.png","uri":"steam_temperature_gauge_back_plane.png"},{"mimeType":"image/png","name":"steam_temperature_gauge_needle.png","uri":"steam_temperature_gauge_needle.png"}],"meshes":[{"primitives":[{"mode":4,"attributes":{"POSITION":0,"NORMAL":1,"TEXCOORD_0":2},"indices":3,"material":0}]},{"primitives":[{"mode":4,"attributes":{"POSITION":4,"NORMAL":5,"TEXCOORD_0":6},"indices":7,"material":1}]},{"primitives":[{"mode":4,"attributes":{"POSITION":8,"NORMAL":9,"TEXCOORD_0":10},"indices":11,"material":2}]},{"primitives":[{"mode":4,"attributes":{"POSITION":12,"NORMAL":13,"TEXCOORD_0":14},"indices":15,"material":3}]},{"primitives":[{"mode":4,"attributes":{"POSITION":16,"NORMAL":17,"TEXCOORD_0":18},"indices":19,"material":4}]}],"animations":[{"name":"animation","samplers":[{"input":20,"output":21,"interpolation":"LINEAR"},{"input":22,"output":23,"interpolation":"LINEAR"}],"channels":[{"sampler":0,"target":{"node":5,"path":"rotation"}},{"sampler":1,"target":{"node":5,"path":"translation"}}]}]}