{"asset":{"version":"2.0","generator":"Blockbench 4.12.5 glTF exporter"},"scenes":[{"nodes":[7],"name":"blockbench_export"}],"scene":0,"nodes":[{"rotation":[0,0,-0.7071067811865475,0.7071067811865476],"translation":[-2.5,0,0],"name":"dial","mesh":0},{"translation":[0,-9.375,0],"name":"bracket","mesh":1},{"translation":[-1.875,-1.875,-4.375],"name":"steam_inlet","mesh":2},{"translation":[0,-0.625,-0.3125],"name":"needle","mesh":3},{"name":"needle_1","children":[3]},{"translation":[-0.625,-0.625,-0.3125],"name":"needle","mesh":4},{"name":"needle_2","children":[5]},{"children":[0,1,2,4,6]}],"bufferViews":[{"buffer":0,"byteOffset":0,"byteLength":4032,"target":34962,"byteStride":12},{"buffer":0,"byteOffset":4032,"byteLength":4032,"target":34962,"byteStride":12},{"buffer":0,"byteOffset":8064,"byteLength":2688,"target":34962,"byteStride":8},{"buffer":0,"byteOffset":10752,"byteLength":936,"target":34963},{"buffer":0,"byteOffset":11688,"byteLength":576,"target":34962,"byteStride":12},{"buffer":0,"byteOffset":12264,"byteLength":576,"target":34962,"byteStride":12},{"buffer":0,"byteOffset":12840,"byteLength":384,"target":34962,"byteStride":8},{"buffer":0,"byteOffset":13224,"byteLength":144,"target":34963},{"buffer":0,"byteOffset":13368,"byteLength":1152,"target":34962,"byteStride":12},{"buffer":0,"byteOffset":14520,"byteLength":1152,"target":34962,"byteStride":12},{"buffer":0,"byteOffset":15672,"byteLength":768,"target":34962,"byteStride":8},{"buffer":0,"byteOffset":16440,"byteLength":288,"target":34963},{"buffer":0,"byteOffset":16728,"byteLength":288,"target":34962,"byteStride":12},{"buffer":0,"byteOffset":17016,"byteLength":288,"target":34962,"byteStride":12},{"buffer":0,"byteOffset":17304,"byteLength":192,"target":34962,"byteStride":8},{"buffer":0,"byteOffset":17496,"byteLength":72,"target":34963},{"buffer":0,"byteOffset":17568,"byteLength":288,"target":34962,"byteStride":12},{"buffer":0,"byteOffset":17856,"byteLength":288,"target":34962,"byteStride":12},{"buffer":0,"byteOffset":18144,"byteLength":192,"target":34962,"byteStride":8},{"buffer":0,"byteOffset":18336,"byteLength":72,"target":34963},{"buffer":0,"byteOffset":18408,"byteLength":16},{"buffer":0,"byteOffset":18424,"byteLength":64},{"buffer":0,"byteOffset":18488,"byteLength":8},{"buffer":0,"byteOffset":18496,"byteLength":24},{"buffer":0,"byteOffset":18520,"byteLength":16},{"buffer":0,"byteOffset":18536,"byteLength":64},{"buffer":0,"byteOffset":18600,"byteLength":12},{"buffer":0,"byteOffset":18612,"byteLength":36}],"buffers":[{"byteLength":18648,"uri":"data:application/octet-stream;base64,"}],"accessors":[{"bufferView":0,"componentType":5126,"count":336,"max":[4.375,3.125,4.375],"min":[-4.375,1.875,-4.375],"type":"VEC3"},{"bufferView":1,"componentType":5126,"count":336,"max":[1,1,1],"min":[-1,-1,-1],"type":"VEC3"},{"bufferView":2,"componentType":5126,"count":336,"max":[0.7113140821456909,0.5859375],"min":[0,0],"type":"VEC2"},{"bufferView":3,"componentType":5123,"count":468,"max":[335],"min":[0],"type":"SCALAR"},{"bufferView":4,"componentType":5126,"count":48,"max":[0.625,14.375,1.25],"min":[-0.625,4.375,-5.625],"type":"VEC3"},{"bufferView":5,"componentType":5126,"count":48,"max":[1,1,1],"min":[-1,-1,-1],"type":"VEC3"},{"bufferView":6,"componentType":5126,"count":48,"max":[0.71875,0.40625],"min":[0,0],"type":"VEC2"},{"bufferView":7,"componentType":5123,"count":72,"max":[47],"min":[0],"type":"SCALAR"},{"bufferView":8,"componentType":5126,"count":96,"max":[3.125,3.125,0],"min":[0.625,0.625,-0.625],"type":"VEC3"},{"bufferView":9,"componentType":5126,"count":96,"max":[1,1,1],"min":[-1,-1,-1],"type":"VEC3"},{"bufferView":10,"componentType":5126,"count":96,"max":[0.8125,0.75],"min":[0,0],"type":"VEC2"},{"bufferView":11,"componentType":5123,"count":144,"max":[95],"min":[0],"type":"SCALAR"},{"bufferView":12,"componentType":5126,"count":24,"max":[0.625,0.9375,0.625],"min":[0,-3.28125,0],"type":"VEC3"},{"bufferView":13,"componentType":5126,"count":24,"max":[1,1,1],"min":[-1,-1,-1],"type":"VEC3"},{"bufferView":14,"componentType":5126,"count":24,"max":[0.3125,0.4375],"min":[0,0],"type":"VEC2"},{"bufferView":15,"componentType":5123,"count":36,"max":[23],"min":[0],"type":"SCALAR"},{"bufferView":16,"componentType":5126,"count":24,"max":[0.625,0.9375,0.625],"min":[0,-3.28125,0],"type":"VEC3"},{"bufferView":17,"componentType":5126,"count":24,"max":[1,1,1],"min":[-1,-1,-1],"type":"VEC3"},{"bufferView":18,"componentType":5126,"count":24,"max":[0.3125,0.4375],"min":[0,0],"type":"VEC2"},{"bufferView":19,"componentType":5123,"count":36,"max":[23],"min":[0],"type":"SCALAR"},{"bufferView":20,"componentType":5126,"count":4,"max":[1],"min":[0],"type":"SCALAR"},{"bufferView":21,"componentType":5126,"count":4,"max":[-0.08715574443340302,0,0,0.9961947202682495],"min":[-0.9396926164627075,0,0,-0.9961947202682495],"type":"VEC4"},{"bufferView":22,"componentType":5126,"count":2,"max":[1],"min":[0],"type":"SCALAR"},{"bufferView":23,"componentType":5126,"count":2,"max":[0,0,0],"min":[0,0,0],"type":"VEC3"},{"bufferView":24,"componentType":5126,"count":4,"max":[1],"min":[0],"type":"SCALAR"},{"bufferView":25,"componentType":5126,"count":4,"max":[0.9396926164627075,0,0,0.9961947202682495],"min":[0.08715574443340302,0,0,-0.9961947202682495],"type":"VEC4"},{"bufferView":26,"componentType":5126,"count":3,"max":[1],"min":[0],"type":"SCALAR"},{"bufferView":27,"componentType":5126,"count":3,"max":[0,0,0],"min":[0,0,0],"type":"VEC3"}],"materials":[{"pbrMetallicRoughness":{"metallicFactor":0,"roughnessFactor":1,"baseColorTexture":{"index":0}},"alphaMode":"MASK","alphaCutoff":0.05,"doubleSided":true},{"pbrMetallicRoughness":{"metallicFactor":0,"roughnessFactor":1,"baseColorTexture":{"index":1}},"alphaMode":"MASK","alphaCutoff":0.05,"doubleSided":true},{"pbrMetallicRoughness":{"metallicFactor":0,"roughnessFactor":1,"baseColorTexture":{"index":2}},"alphaMode":"MASK","alphaCutoff":0.05,"doubleSided":true},{"pbrMetallicRoughness":{"metallicFactor":0,"roughnessFactor":1,"baseColorTexture":{"index":3}},"alphaMode":"MASK","alphaCutoff":0.05,"doubleSided":true}],"textures":[{"sampler":0,"source":0,"name":"steam_pressure_gauge_dial.png"},{"sampler":1,"source":1,"name":"steam_pressure_gauge_bracket.png"},{"sampler":2,"source":2,"name":"steam_pressure_gauge_inlet.png"},{"sampler":3,"source":3,"name":"steam_pressure_gauge_needle.png"}],"samplers":[{"magFilter":9728,"minFilter":9728,"wrapS":33071,"wrapT":33071},{"magFilter":9728,"minFilter":9728,"wrapS":33071,"wrapT":33071},{"magFilter":9728,"minFilter":9728,"wrapS":33071,"wrapT":33071},{"magFilter":9728,"minFilter":9728,"wrapS":33071,"wrapT":33071}],"images":[{"mimeType":"image/png","name":"steam_pressure_gauge_dial.png","uri":"steam_pressure_gauge_dial.png"},{"mimeType":"image/png","name":"steam_pressure_gauge_bracket.png","uri":"steam_pressure_gauge_bracket.png"},{"mimeType":"image/png","name":"steam_pressure_gauge_inlet.png","uri":"steam_pressure_gauge_inlet.png"},{"mimeType":"image/png","name":"steam_pressure_gauge_needle.png","uri":"steam_pressure_gauge_needle.png"}],"meshes":[{"primitives":[{"mode":4,"attributes":{"POSITION":0,"NORMAL":1,"TEXCOORD_0":2},"indices":3,"material":0}]},{"primitives":[{"mode":4,"attributes":{"POSITION":4,"NORMAL":5,"TEXCOORD_0":6},"indices":7,"material":1}]},{"primitives":[{"mode":4,"attributes":{"POSITION":8,"NORMAL":9,"TEXCOORD_0":10},"indices":11,"material":2}]},{"primitives":[{"mode":4,"attributes":{"POSITION":12,"NORMAL":13,"TEXCOORD_0":14},"indices":15,"material":3}]},{"primitives":[{"mode":4,"attributes":{"POSITION":16,"NORMAL":17,"TEXCOORD_0":18},"indices":19,"material":3}]}],"animations":[{"name":"animation","samplers":[{"input":20,"output":21,"interpolation":"LINEAR"},{"input":22,"output":23,"interpolation":"LINEAR"},{"input":24,"output":25,"interpolation":"LINEAR"},{"input":26,"output":27,"interpolation":"LINEAR"}],"channels":[{"sampler":0,"target":{"node":4,"path":"rotation"}},{"sampler":1,"target":{"node":4,"path":"translation"}},{"sampler":2,"target":{"node":6,"path":"rotation"}},{"sampler":3,"target":{"node":6,"path":"translation"}}]}]}